<svg width="48" height="48" viewBox="0 0 48 48" fill="none" xmlns="http://www.w3.org/2000/svg">
<g clip-path="url(#clip0_75_9)">
<path d="M42.9338 20H35.9998V4C35.9998 2.93913 35.5784 1.92172 34.8282 1.17157C34.0781 0.421427 33.0607 0 31.9998 0L15.9998 0C14.939 0 13.9215 0.421427 13.1714 1.17157C12.4212 1.92172 11.9998 2.93913 11.9998 4V20H5.06582C0.680819 20 -1.62518 24.7 1.31882 27.629L20.2528 46.5C21.2627 47.4629 22.6045 48 23.9998 48C25.3952 48 26.7369 47.4629 27.7468 46.5L46.6808 27.629C49.6248 24.7 47.3188 20 42.9338 20Z" fill="#F91E7E"/>
<path d="M42.934 20H38.934C43.319 20 45.625 24.7 42.681 27.629L23.747 46.5C23.249 46.9929 22.6541 47.377 22 47.628C22.9658 48.0072 24.0199 48.1025 25.0381 47.9027C26.0563 47.7028 26.9962 47.2162 27.747 46.5L46.681 27.629C49.625 24.7 47.319 20 42.934 20Z" fill="#B80261"/>
<path d="M36 20V4C36 2.93913 35.5786 1.92172 34.8284 1.17157C34.0783 0.421427 33.0609 0 32 0L28 0C29.0609 0 30.0783 0.421427 30.8284 1.17157C31.5786 1.92172 32 2.93913 32 4V20H36Z" fill="#B80261"/>
</g>
<defs>
<clipPath id="clip0_75_9">
<rect width="48" height="48" fill="white"/>
</clipPath>
</defs>
</svg>
