<svg width="100" xmlns="http://www.w3.org/2000/svg" height="100" viewBox="541 207 100 100" style="-webkit-print-color-adjust::exact" xmlns:xlink="http://www.w3.org/1999/xlink" fill="none" version="1.1">
  <g data-testid="Logo" style="fill:#000000" width="44" height="45" rx="0" ry="0">
    <g data-testid="Rectangle">
      <g class="fills">
        <rect rx="12" ry="12" x="541" y="207" transform="matrix(1.000000, 0.000000, 0.000000, 1.000000, 0.000000, 0.000000)" width="100" height="100" style="fill:#17020400;fill-opacity:1">
        </rect>
      </g>
    </g>
    <g data-testid="svg-path">
      <g class="fills">
        <path d="M584.190,260.908L574.193,260.908C569.825,260.908,566.271,264.463,566.271,268.831L566.271,271.575C566.271,275.943,569.825,279.498,574.193,279.498L608.629,279.498C612.997,279.498,616.552,275.943,616.552,271.575L616.552,268.831C616.552,264.463,612.997,260.908,608.629,260.908L600.810,260.908C606.124,252.605,609.006,239.895,609.150,239.246C610.114,233.938,609.090,223.035,598.314,219.772C585.114,215.776,575.589,228.574,575.189,229.120C574.353,230.386,575.589,231.970,576.091,233.093C576.673,232.605,577.382,231.625,578.251,231.755C578.335,231.763,586.615,232.243,593.132,229.196C595.032,228.351,596.343,231.149,594.474,232.065C588.297,234.952,581.012,235.011,578.746,234.944L578.058,235.585C580.659,238.044,584.435,238.814,587.966,238.641C587.651,241.504,586.942,247.004,585.823,250.400C584.610,254.095,584.280,258.571,584.190,260.908ZZM589.734,228.599C586.926,228.549,586.928,224.379,589.734,224.330C592.538,224.380,592.538,228.549,589.734,228.599ZZM588.833,251.391C590.155,247.379,590.913,240.982,591.190,238.293C593.918,237.836,596.382,237.041,598.036,236.421C598.056,245.774,592.089,257.751,590.424,260.910L587.360,260.910C587.453,258.712,587.767,254.630,588.833,251.391ZZ" style="fill:#eb2d3d">
        </path>
      </g>
    </g>
    <g data-testid="svg-path">
      <g class="fills" id="fills-0162c3eb-cd89-800c-8004-abc038bef842">
        <path d="M619.618,276.411L618.021,276.411C616.236,280.147,612.432,282.741,608.021,282.741L573.585,282.741C569.176,282.741,565.370,280.147,563.585,276.411C558.833,275.910,554.425,279.440,554.462,284.333L554.462,287.077C554.462,291.445,558.016,295.000,562.384,295.000L619.616,295.000C623.984,295.000,627.538,291.445,627.538,287.077L627.538,284.333C627.538,279.967,623.984,276.411,619.618,276.411ZZ" style="fill:#eb2d3d">
        </path>
      </g>
    </g>
    <g data-testid="svg-path">
      <g class="fills">
        <path d="M571.741,235.984L567.831,235.984C565.751,236.019,565.751,239.114,567.831,239.149L570.692,239.149L570.561,241.532C570.478,243.609,573.569,243.786,573.719,241.708L573.908,238.290L577.446,234.991C576.680,234.281,576.028,233.445,575.479,232.497L571.741,235.984ZZ" style="fill:#eb2d3d">
        </path>
      </g>
    </g>
  </g>
</svg>
