<svg width="30" height="30" viewBox="0 0 30 30" fill="none" xmlns="http://www.w3.org/2000/svg">
<path d="M21 20.25C21.375 20.25 21.625 20.125 21.875 19.875C22.375 19.375 22.375 18.625 21.875 18.125L18.125 14.375C17.625 13.875 16.875 13.875 16.375 14.375C15.875 14.875 15.875 15.625 16.375 16.125L20.125 19.875C20.375 20.125 20.625 20.25 21 20.25Z" fill="#BB1120"/>
<path d="M17.25 16.25C16.875 16.25 16.625 16.125 16.375 15.875C15.875 15.375 15.875 14.625 16.375 14.125L20.125 10.375C20.625 9.875 21.375 9.875 21.875 10.375C22.375 10.875 22.375 11.625 21.875 12.125L18.125 15.875C17.875 16.125 17.625 16.25 17.25 16.25Z" fill="#BB1120"/>
<rect x="1.25" y="1.25" width="27.5" height="27.5" rx="3.75" stroke="#BB1120" stroke-width="2.5"/>
<path d="M10 2L10 28" stroke="#BB1120" stroke-width="2.5" stroke-linecap="round"/>
</svg>
