<svg width="30" height="26" viewBox="0 0 30 26" fill="none" xmlns="http://www.w3.org/2000/svg">
<path d="M28.4135 4.8663C28.8149 4.83624 29.1901 4.65558 29.4639 4.36054C29.7376 4.0655 29.8898 3.67788 29.8898 3.27539C29.8898 2.8729 29.7376 2.48528 29.4639 2.19024C29.1901 1.8952 28.8149 1.71454 28.4135 1.68448H11.5865C11.7907 2.18854 11.8966 2.72705 11.8984 3.27093C11.8956 3.8176 11.7898 4.35884 11.5865 4.8663H28.4135ZM1.58645 4.8663H3.82353C3.6131 4.36067 3.50408 3.81861 3.50267 3.27093C3.50314 2.72605 3.61222 2.18672 3.82353 1.68448H1.58645C1.18509 1.71454 0.809917 1.8952 0.536148 2.19024C0.26238 2.48528 0.110247 2.8729 0.110247 3.27539C0.110247 3.67788 0.26238 4.0655 0.536148 4.36054C0.809917 4.65558 1.18509 4.83624 1.58645 4.8663ZM7.71836 6.54188C8.36567 6.54364 8.99895 6.3533 9.53802 5.99496C10.0771 5.63662 10.4977 5.12639 10.7467 4.52886C10.9956 3.93133 11.0617 3.27337 10.9365 2.63829C10.8112 2.0032 10.5004 1.41954 10.0433 0.961197C9.58624 0.502855 9.00343 0.190441 8.36869 0.0635069C7.73394 -0.0634272 7.07581 0.000825832 6.4776 0.248132C5.8794 0.495438 5.36802 0.914676 5.00821 1.45277C4.6484 1.99087 4.45633 2.62362 4.45633 3.27093C4.45633 4.1369 4.79972 4.96753 5.41121 5.5807C6.02271 6.19386 6.8524 6.53952 7.71836 6.54188ZM1.58645 14.3939H14.6881C14.4767 13.8917 14.3677 13.3524 14.3672 12.8075C14.3686 12.2598 14.4776 11.7177 14.6881 11.2121H1.58645C1.18509 11.2422 0.809917 11.4228 0.536148 11.7179C0.26238 12.0129 0.110247 12.4005 0.110247 12.803C0.110247 13.2055 0.26238 13.5931 0.536148 13.8882C0.809917 14.1832 1.18509 14.3639 1.58645 14.3939ZM28.4135 11.2121H22.4866C22.6899 11.7196 22.7958 12.2608 22.7986 12.8075C22.7968 13.3514 22.6909 13.8899 22.4866 14.3939H28.4135C28.8149 14.3639 29.1901 14.1832 29.4639 13.8882C29.7376 13.5931 29.8898 13.2055 29.8898 12.803C29.8898 12.4005 29.7376 12.0129 29.4639 11.7179C29.1901 11.4228 28.8149 11.2422 28.4135 11.2121ZM15.3209 12.8075C15.3226 13.4523 15.5154 14.0821 15.8749 14.6173C16.2344 15.1526 16.7445 15.5693 17.3407 15.8148C17.9369 16.0604 18.5925 16.1237 19.2247 15.9968C19.8569 15.87 20.4373 15.5586 20.8926 15.102C21.3479 14.6455 21.6577 14.0642 21.7829 13.4317C21.908 12.7992 21.8429 12.1437 21.5958 11.5482C21.3486 10.9526 20.9305 10.4437 20.3942 10.0857C19.858 9.72762 19.2277 9.53653 18.5829 9.53653C18.1538 9.53653 17.7289 9.6212 17.3325 9.78569C16.9362 9.95018 16.5762 10.1913 16.2731 10.4951C15.9701 10.799 15.73 11.1596 15.5666 11.5564C15.4032 11.9532 15.3197 12.3783 15.3209 12.8075ZM1.58645 21.123C1.1657 21.123 0.762179 21.2901 0.464661 21.5876C0.167144 21.8852 0 22.2887 0 22.7094C0 23.1302 0.167144 23.5337 0.464661 23.8312C0.762179 24.1287 1.1657 24.2959 1.58645 24.2959H4.56328C4.14723 23.2792 4.14723 22.1397 4.56328 21.123H1.58645ZM28.4135 21.123H12.3708C12.5826 21.6251 12.6917 22.1645 12.6917 22.7094C12.6917 23.2544 12.5826 23.7938 12.3708 24.2959H28.4135C28.8343 24.2959 29.2378 24.1287 29.5353 23.8312C29.8329 23.5337 30 23.1302 30 22.7094C30 22.2887 29.8329 21.8852 29.5353 21.5876C29.2378 21.2901 28.8343 21.123 28.4135 21.123ZM8.46702 19.4474C7.81934 19.4456 7.18571 19.6362 6.64644 19.9949C6.10717 20.3537 5.68654 20.8644 5.43787 21.4625C5.1892 22.0605 5.12367 22.719 5.24959 23.3543C5.37552 23.9896 5.68723 24.5733 6.14522 25.0312C6.6032 25.4892 7.18685 25.8009 7.82218 25.9269C8.45751 26.0528 9.11592 25.9873 9.71397 25.7386C10.312 25.4899 10.8228 25.0693 11.1815 24.53C11.5403 23.9908 11.7308 23.3571 11.7291 22.7094C11.7291 21.8443 11.3854 21.0146 10.7736 20.4028C10.1619 19.7911 9.33217 19.4474 8.46702 19.4474Z" fill="#bb1120"/>
</svg>
