<svg width="31" height="30" viewBox="0 0 31 30" fill="none" xmlns="http://www.w3.org/2000/svg">
<path d="M1.19845 6.03408C0.972599 5.97626 0.765294 5.87903 0.582578 5.75134C0.335578 6.06583 0.187795 6.46175 0.186889 6.89153L4.24378e-05 24.0045L0 24.0114C0 25.0044 0.784152 25.8178 1.7657 25.8648L14.9613 29.3364V9.55765L1.19845 6.03408ZM5.59472 22.4881C4.89862 23.1843 3.77 23.1843 3.0739 22.4881C2.3778 21.792 2.3778 20.6634 3.0739 19.9673C3.77005 19.2712 4.89867 19.2712 5.59477 19.9673C6.29087 20.6634 6.29087 21.792 5.59472 22.4881ZM9.56697 18.3514C8.87087 19.0476 7.74225 19.0476 7.04613 18.3514C6.35003 17.6554 6.35003 16.5267 7.04613 15.8306C7.74228 15.1345 8.8709 15.1345 9.567 15.8306C10.2631 16.5267 10.2631 17.6553 9.56697 18.3514ZM12.0272 14.6026C11.0465 14.6885 10.1819 13.9631 10.096 12.9824C10.0101 12.0017 10.7355 11.137 11.7162 11.0511C12.6969 10.9653 13.5615 11.6906 13.6474 12.6713C13.7333 13.652 13.0079 14.5167 12.0272 14.6026Z" fill="#bb1120"/>
<path d="M30.4466 5.57495C30.2213 5.78818 29.9421 5.94801 29.6268 6.03098L16.2255 9.55662V29.2381L29.0474 25.8649C30.0277 25.8179 30.811 25.0066 30.8131 24.0154L31 6.90243L31 6.89554C31 6.37929 30.788 5.91167 30.4466 5.57495ZM20.8986 16.4323C19.9179 16.5182 19.0533 15.7928 18.9674 14.8121C18.8815 13.8314 19.6069 12.9668 20.5876 12.8809C21.5683 12.795 22.4329 13.5204 22.5189 14.5011C22.6047 15.4818 21.8793 16.3464 20.8986 16.4323ZM27.0567 20.9702C26.3606 21.6663 25.232 21.6663 24.5359 20.9702C23.8398 20.2741 23.8398 19.1455 24.5359 18.4493C25.232 17.7532 26.3606 17.7532 27.0567 18.4493C27.7528 19.1454 27.7528 20.2741 27.0567 20.9702Z" fill="#bb1120"/>
<path d="M29.3052 3.58582L15.7543 0.0208046C15.6502 -0.006586 15.5409 -0.0069235 15.4366 0.0197508L1.51199 3.58477C1.23231 3.65636 1.03668 3.90838 1.03668 4.19712C1.03668 4.48586 1.23231 4.73785 1.51199 4.80946L15.4366 8.37446C15.4881 8.38763 15.5407 8.39422 15.5934 8.39422C15.6474 8.39422 15.7015 8.38729 15.7542 8.37343L29.3051 4.80843C29.5829 4.73536 29.7764 4.4843 29.7764 4.19714C29.7764 3.90998 29.5829 3.65887 29.3052 3.58582ZM15.5935 5.50171C14.6159 5.50171 13.8234 4.91762 13.8234 4.19709C13.8234 3.47657 14.6159 2.89246 15.5935 2.89246C16.571 2.89246 17.3635 3.47657 17.3635 4.19709C17.3635 4.91762 16.571 5.50171 15.5935 5.50171Z" fill="#bb1120"/>
</svg>
