<svg width="44" height="45" viewBox="0 0 44 45" fill="none" xmlns="http://www.w3.org/2000/svg">
<path d="M17.2609 24.8397H11.3353C8.74636 24.8397 6.63953 26.9466 6.63953 29.5355V31.1621C6.63953 33.7511 8.74636 35.8579 11.3353 35.8579H31.747C34.336 35.8579 36.4428 33.7511 36.4428 31.1621V29.5355C36.4428 26.9466 34.336 24.8397 31.747 24.8397H27.1122C30.2621 19.9179 31.9702 12.3845 32.0556 11.9999C32.6269 8.85372 32.02 2.39159 25.6329 0.457363C17.8087 -1.91118 12.1627 5.67472 11.9254 5.99834C11.4301 6.74877 12.1627 7.68774 12.46 8.35281C12.8052 8.0639 13.2255 7.48325 13.7405 7.56017C13.7902 7.56486 18.698 7.84909 22.5608 6.04337C23.6874 5.54246 24.4641 7.2009 23.3563 7.74403C19.6951 9.455 15.3773 9.48971 14.0341 9.45031L13.626 9.83022C15.1681 11.2879 17.4063 11.7438 19.4991 11.6416C19.3124 13.3385 18.8922 16.5981 18.229 18.6112C17.5095 20.8015 17.3144 23.4543 17.2609 24.8397ZM20.5468 5.68973C18.8828 5.65971 18.8837 3.18798 20.5468 3.15891C22.209 3.18892 22.209 5.65971 20.5468 5.68973ZM20.0131 19.1984C20.7964 16.8205 21.2457 13.0289 21.4098 11.4352C23.027 11.1641 24.4875 10.6932 25.4678 10.3255C25.48 15.8693 21.9426 22.9683 20.9558 24.8407H19.1398C19.1951 23.5377 19.3809 21.1185 20.0131 19.1984Z" fill="#BB1120"/>
<path d="M38.621 33.9818H37.6745C36.6164 36.1965 34.3613 37.734 31.747 37.734H11.3354C8.72199 37.734 6.46601 36.1965 5.40791 33.9818C2.59099 33.6854 -0.0214421 35.7772 0.000132705 38.6776V40.3042C0.000132705 42.8932 2.10696 45 4.69594 45H38.62C41.209 45 43.3158 42.8932 43.3158 40.3042V38.6776C43.3158 36.0896 41.209 33.9818 38.621 33.9818Z" fill="#BB1120"/>
<path d="M10.2445 10.4184H7.92657C6.69399 10.4391 6.69399 12.2739 7.92657 12.2945H9.62254L9.54468 13.7072C9.49591 14.9379 11.3279 15.0429 11.417 13.8113L11.5286 11.7851L13.6261 9.83027C13.1721 9.4091 12.7856 8.91381 12.4601 8.35193L10.2445 10.4184Z" fill="#BB1120"/>
</svg>
