<svg width="30" height="32" viewBox="0 0 30 32" fill="none" xmlns="http://www.w3.org/2000/svg">
<path d="M13.5262 8.42498V11.1106C13.5262 12.1259 14.607 12.7481 15.4913 12.2241L23.9738 7.34419C24.8581 6.85293 24.8581 5.57564 23.9738 5.08437L15.4913 0.171706C14.607 -0.31956 13.5262 0.30271 13.5262 1.28524V4.13459C5.9607 4.88786 0 11.3071 0 19.0691C0 20.2481 0.949782 21.1979 2.12882 21.1979C3.30786 21.1979 4.25764 20.2481 4.25764 19.0691C4.22489 13.6324 8.28603 9.1455 13.5262 8.42498Z" fill="#bb1120"/>
<path d="M30 12.0603C30 10.8813 29.0502 9.93152 27.8712 9.93152C26.6921 9.93152 25.7423 10.8813 25.7423 12.0603C25.7423 17.497 21.6812 21.9839 16.441 22.7044V20.0189C16.441 19.0036 15.3602 18.3813 14.476 18.9053L6.02619 23.7852C5.14191 24.2765 5.14191 25.5538 6.02619 26.0451L14.5087 30.9577C15.393 31.449 16.4738 30.8267 16.4738 29.8442V26.9948C24.0393 26.2416 30 19.8223 30 12.0603Z" fill="#bb1120"/>
</svg>
